<?xml version="1.0" encoding="UTF-8" standalone="no"?>
<svg
   xmlns:dc="http://purl.org/dc/elements/1.1/"
   xmlns:cc="http://creativecommons.org/ns#"
   xmlns:rdf="http://www.w3.org/1999/02/22-rdf-syntax-ns#"
   xmlns:svg="http://www.w3.org/2000/svg"
   xmlns="http://www.w3.org/2000/svg"
   version="1.1"
   id="svg2"
   viewBox="0 0 265 48.000001"
   height="48"
   width="265">
  <defs
     id="defs4" />
  <metadata
     id="metadata7">
    <rdf:RDF>
      <cc:Work
         rdf:about="">
        <dc:format>image/svg+xml</dc:format>
        <dc:type
           rdf:resource="http://purl.org/dc/dcmitype/StillImage" />
        <dc:title></dc:title>
      </cc:Work>
    </rdf:RDF>
  </metadata>
  <g
     transform="translate(0,-1004.3622)"
     id="layer1">
    <g
       id="text4136"
       style="font-style:normal;font-weight:normal;font-size:60px;line-height:125%;font-family:sans-serif;letter-spacing:0px;word-spacing:0px;fill:#000000;fill-opacity:1;stroke:none;stroke-width:1px;stroke-linecap:butt;stroke-linejoin:miter;stroke-opacity:1">
      <path
         id="path4168"
         style="font-style:normal;font-variant:normal;font-weight:normal;font-stretch:normal;font-size:50px;font-family:'Product Sans';-inkscape-font-specification:'Product Sans';fill:#212121;fill-opacity:1"
         d="m 5.2902345,1041.0623 -4.60000003,0 0,-35.8 4.60000003,0 0,35.8 z" />
      <path
         id="path4170"
         style="font-style:normal;font-variant:normal;font-weight:normal;font-stretch:normal;font-size:50px;font-family:'Product Sans';-inkscape-font-specification:'Product Sans';fill:#212121;fill-opacity:1"
         d="m 15.846484,1010.4123 q -0.95,0.95 -2.3,0.95 -1.35,0 -2.3,-0.95 -0.95,-0.95 -0.95,-2.3 0,-1.35 0.95,-2.3 0.95,-0.95 2.3,-0.95 1.35,0 2.3,0.95 0.95,0.95 0.95,2.3 0,1.35 -0.95,2.3 z m 0,30.65 -4.6,0 0,-24.5 4.6,0 0,24.5 z" />
      <path
         id="path4172"
         style="font-style:normal;font-variant:normal;font-weight:normal;font-stretch:normal;font-size:50px;font-family:'Product Sans';-inkscape-font-specification:'Product Sans';fill:#212121;fill-opacity:1"
         d="m 21.881641,1041.0623 0,-24.5 4.4,0 0,3.4 0.2,0 q 1.05,-1.75 3.2,-2.95 2.2,-1.25 4.35,-1.25 5.7,0 7.75,4.7 3,-4.7 8.55,-4.7 4.35,0 6.55,2.8 2.2,2.75 2.2,7.5 l 0,15 -4.6,0 0,-14.3 q 0,-3.7 -1.35,-5.25 -1.35,-1.55 -4.1,-1.55 -2.7,0 -4.5,2.3 -1.75,2.3 -1.75,5.25 l 0,13.55 -4.6,0 0,-14.3 q 0,-3.7 -1.35,-5.25 -1.35,-1.55 -4.1,-1.55 -2.7,0 -4.5,2.3 -1.75,2.3 -1.75,5.25 l 0,13.55 -4.6,0 z" />
      <path
         id="path4174"
         style="font-style:normal;font-variant:normal;font-weight:normal;font-stretch:normal;font-size:50px;font-family:'Product Sans';-inkscape-font-specification:'Product Sans';fill:#212121;fill-opacity:1"
         d="m 69.059766,1005.2623 0,11.3 -0.2,3.4 0.2,0 q 1,-1.75 3.15,-2.95 2.15,-1.25 4.6,-1.25 4.55,0 6.95,2.8 2.4,2.8 2.4,7.5 l 0,15 -4.6,0 0,-14.3 q 0,-6.8 -6.05,-6.8 -2.85,0 -4.65,2.3 -1.8,2.25 -1.8,5.25 l 0,13.55 -4.6,0 0,-35.8 4.6,0 z" />
      <path
         id="path4176"
         style="font-style:normal;font-variant:normal;font-weight:normal;font-stretch:normal;font-size:50px;font-family:'Product Sans';-inkscape-font-specification:'Product Sans';fill:#212121;fill-opacity:1"
         d="m 102.7082,1041.8623 q -5.549997,0 -9.049997,-3.7 -3.45,-3.7 -3.45,-9.35 0,-5.35 3.35,-9.2 3.4,-3.85 8.649997,-3.85 5.45,0 8.7,3.55 3.3,3.55 3.3,9.5 l -0.05,0.85 -19.349997,0 q 0.2,3.7 2.45,5.85 2.3,2.15 5.349997,2.15 4.95,0 6.7,-4.2 l 4.1,1.7 q -1.2,2.85 -3.95,4.8 -2.75,1.9 -6.75,1.9 z m 6.6,-16 q -0.15,-2.1 -1.95,-4 -1.75,-1.9 -5.25,-1.9 -2.549997,0 -4.449997,1.6 -1.85,1.6 -2.55,4.3 l 14.199997,0 z" />
      <path
         id="path4178"
         style="font-style:normal;font-variant:normal;font-weight:normal;font-stretch:normal;font-size:50px;font-family:'Product Sans';-inkscape-font-specification:'Product Sans';fill:#212121;fill-opacity:1"
         d="m 122.76602,1016.5623 0,3.4 0.2,0 q 1,-1.75 3.15,-2.95 2.15,-1.25 4.6,-1.25 4.55,0 6.95,2.8 2.4,2.8 2.4,7.5 l 0,15 -4.6,0 0,-14.3 q 0,-6.8 -6.05,-6.8 -2.85,0 -4.65,2.3 -1.8,2.25 -1.8,5.25 l 0,13.55 -4.6,0 0,-24.5 4.4,0 z" />
      <path
         id="path4180"
         style="font-style:normal;font-variant:normal;font-weight:normal;font-stretch:normal;font-size:50px;font-family:'Product Sans';-inkscape-font-specification:'Product Sans';fill:#212121;fill-opacity:1"
         d="m 150.11445,1041.0623 -4.6,0 0,-24.5 4.4,0 0,4 0.2,0 q 0.7,-2 2.85,-3.3 2.2,-1.3 4.25,-1.3 2.05,0 3.45,0.6 l -1.75,4.3 q -0.9,-0.35 -2.45,-0.35 -2.5,0 -4.45,2 -1.9,1.95 -1.9,5.15 l 0,13.4 z" />
      <path
         id="path4182"
         style="font-style:normal;font-variant:normal;font-weight:normal;font-stretch:normal;font-size:50px;font-family:'Product Sans';-inkscape-font-specification:'Product Sans';fill:#212121;fill-opacity:1"
         d="m 170.7168,1051.8623 -4.75,0 5.7,-12.35 -10.1,-22.95 5,0 7.3,17.6 0.1,0 7.1,-17.6 5,0 -15.35,35.3 z" />
      <path
         id="path4184"
         style="font-style:normal;font-variant:normal;font-weight:normal;font-stretch:normal;font-size:50px;font-family:'Product Sans';-inkscape-font-specification:'Product Sans';fill:#212121;fill-opacity:1"
         d="m 190.95352,1040.3623 q -1,1 -2.4,1 -1.4,0 -2.4,-1 -1,-1 -1,-2.4 0,-1.4 1,-2.4 1,-1 2.4,-1 1.4,0 2.4,1 1,1 1,2.4 0,1.4 -1,2.4 z" />
      <path
         id="path4186"
         style="font-style:normal;font-variant:normal;font-weight:normal;font-stretch:normal;font-size:50px;font-family:'Product Sans';-inkscape-font-specification:'Product Sans';fill:#212121;fill-opacity:1"
         d="m 217.57461,1041.0623 -5.4,0 -6.05,-9.05 -5.95,9.05 -5.4,0 8.65,-12.45 -8.45,-12.05 5.2,0 6.05,8.65 5.75,-8.65 5.4,0 -8.55,12.05 8.75,12.45 z" />
      <path
         id="path4188"
         style="font-style:normal;font-variant:normal;font-weight:normal;font-stretch:normal;font-size:50px;font-family:'Product Sans';-inkscape-font-specification:'Product Sans';fill:#212121;fill-opacity:1"
         d="m 227.35742,1051.8623 -4.75,0 5.7,-12.35 -10.1,-22.95 5,0 7.3,17.6 0.1,0 7.1,-17.6 5,0 -15.35,35.3 z" />
      <path
         id="path4190"
         style="font-style:normal;font-variant:normal;font-weight:normal;font-stretch:normal;font-size:50px;font-family:'Product Sans';-inkscape-font-specification:'Product Sans';fill:#212121;fill-opacity:1"
         d="m 244.50977,1041.0623 0,-4 13.95,-16.3 -13.55,0 0,-4.2 19.2,0 0,4 -13.95,16.3 14.15,0 0,4.2 -19.8,0 z" />
    </g>
  </g>
</svg>
