<svg xmlns="http://www.w3.org/2000/svg" height="48" width="265"><g fill="#424242"><path d="M5.3 36.7H.7V1h4.6v35.7zM15.8 6q-1 1-2.3 1-1.3 0-2.3-1-1-1-1-2.2 0-1.4 1-2.3 1-1 2.3-1 1.4 0 2.3 1 1 1 1 2.3 0 1.3-1 2.3zm0 30.7h-4.6V12.2h4.6v24.5zM22 36.7V12.2h4.3v3.4h.2q1-1.7 3.2-3 2.2-1.2 4.3-1.2 5.7 0 7.8 4.7 3-4.6 8.5-4.6 4.4 0 6.6 2.8 2 2.8 2 7.5v15h-4.5V22.4q0-3.7-1.4-5.2-1.2-1.6-4-1.6-2.7 0-4.5 2.3-1.7 2.2-1.7 5.2v13.5h-4.6V22.4q0-3.7-1.4-5.2-1.3-1.6-4-1.6-2.8 0-4.6 2.3-1.7 2.2-1.7 5.2v13.5H22zM69 1v14.6q1-1.7 3.2-3 2.2-1.2 4.6-1.2 4.6 0 7 2.8 2.4 2.8 2.4 7.5v15h-4.6V22.4q0-6.8-6-6.8-3 0-4.7 2.3-2 2.2-2 5.2v13.5h-4.5V1H69zM102.7 37.5q-5.5 0-9-3.7t-3.5-9.3q0-5.4 3.4-9.2 3.4-4 8.6-4 5.5 0 8.7 3.7 3.2 3.5 3.2 9.5v.8H94.8q.2 3.7 2.5 6 2.3 2 5.3 2 5 0 6.7-4.2l4 1.8q-1 3-3.8 4.8-2.8 2-6.8 2zm6.6-16q0-2-2-4-1.7-2-5.2-2-2.4 0-4.3 1.7-2 1.6-2.6 4.3h14.3zM122.8 12.2v3.4h.2q1-1.7 3-3 2.3-1.2 4.7-1.2 4.6 0 7 2.8 2.4 2.8 2.4 7.5v15h-4.5V22.4q0-6.8-6-6.8-3 0-4.7 2.3Q123 20 123 23v13.5h-4.6V12.2h4.4zM150 36.7h-4.5V12.2h4.4v4q.8-2 3-3.3 2.2-1.4 4.2-1.4t3.5.6l-1.8 4.3q-1-.3-2.5-.3-2.5 0-4.5 2t-2 5v13.5zM170.7 47.5H166l5.7-12.3-10-23h5l7.2 17.6 7-17.6h5l-15.3 35.3zM191 36q-1 1-2.4 1t-2.4-1q-1-1-1-2.4t1-2.4q1-1 2.4-1t2.4 1q1 1 1 2.4t-1 2.4zM217.6 36.7h-5.4l-6-9-6 9h-5.4l8.6-12.4-8.4-12h5.2l6 8.6L212 12h5.4l-8.6 12 8.8 12.5zM227.4 47.5h-4.8l5.7-12.3-10-23h5l7.2 17.6 7.2-17.6h5l-15.3 35.3zM244.5 36.7v-4l14-16.3H245v-4.2h19v4l-13.8 16.3h14v4.2h-19.7z"/></g></svg>